<svg id="Original_Colored_Outline_copy" viewBox="0 0 45 45" xmlns="http://www.w3.org/2000/svg" width="45" height="45" version="1.1" xmlns:xlink="http://www.w3.org/1999/xlink" xmlns:svgjs="http://svgjs.dev/svgjs"><g transform="matrix(1,0,0,1,0,0)"><path d="m941.718 2962.498c-12.811-.121-24.639-6.906-31.215-17.901-561.993-939.662-898.003-1476.611-898.003-2000.221 0-503.828 415.596-931.876 928.259-931.876h1.291.03 1.291c512.663 0 928.259 428.049 928.259 931.876 0 523.609-336.01 1060.558-898.002 2000.22-6.703 11.208-18.851 18.026-31.91 17.902z" fill="#ea8029" fill-opacity="1" data-original-color="#f71959ff" stroke="none" stroke-opacity="1"/><path d="m942.06 2975c-.154 0-.306-.001-.46-.002-17.049-.162-33.074-9.353-41.825-23.986-24.823-41.505-49.206-82.227-73.14-122.195-260.058-434.304-465.467-777.344-607.207-1076.729-151.754-320.536-219.428-569.644-219.428-807.712 0-124.976 24.875-247.117 73.936-363.03 47.488-112.198 115.301-213.345 201.554-300.629 86.649-87.685 187.244-156.636 298.99-204.936 116.335-50.285 239.57-75.781 366.279-75.781h2.612c126.709 0 249.943 25.496 366.279 75.781 111.747 48.3 212.341 117.251 298.99 204.936 86.253 87.284 154.065 188.431 201.554 300.629 49.06 115.913 73.936 238.055 73.936 363.03 0 238.068-67.674 487.177-219.428 807.713-141.741 299.388-347.151 642.429-607.211 1076.735-23.932 39.967-48.312 80.685-73.136 122.188-8.866 14.827-25.043 23.988-42.295 23.988zm-.225-25.002c.075.001.151.002.227.002 8.501 0 16.469-4.514 20.839-11.819 24.824-41.508 49.209-82.229 73.143-122.199 259.709-433.723 464.844-776.303 606.063-1074.59 150.091-317.024 217.023-562.833 217.023-797.016 0-121.61-24.21-240.473-71.959-353.285-46.247-109.269-112.297-207.78-196.312-292.802-84.387-85.396-182.336-152.537-291.127-199.561-113.186-48.922-233.084-73.728-356.361-73.728h-2.612c-123.277 0-243.174 24.806-356.361 73.729-108.791 47.023-206.739 114.165-291.125 199.561-84.017 85.021-150.066 183.533-196.313 292.802-47.75 112.811-71.96 231.674-71.96 353.284 0 234.182 66.933 479.99 217.022 797.014 141.22 298.285 346.354 640.864 606.062 1074.584 23.935 39.973 48.32 80.696 73.146 122.207 4.312 7.211 12.208 11.738 20.605 11.817z" fill="#03041e" fill-opacity="1" data-original-color="#03041eff" stroke="none" stroke-opacity="1"/><circle cx="943.371" cy="950.996" fill="#fffaf3" r="524.344" fill-opacity="1" data-original-color="#fffaf3ff" stroke="none" stroke-opacity="1"/><path d="m943.371 1487.84c-72.468 0-142.774-14.195-208.968-42.193-63.929-27.039-121.339-65.746-170.638-115.045s-88.006-106.709-115.045-170.638c-27.998-66.193-42.193-136.5-42.193-208.968s14.195-142.774 42.193-208.968c27.039-63.929 65.746-121.339 115.045-170.638s106.709-88.006 170.638-115.045c66.193-27.998 136.5-42.193 208.968-42.193s142.774 14.195 208.968 42.193c63.929 27.039 121.339 65.746 170.638 115.045s88.006 106.709 115.045 170.638c27.998 66.193 42.193 136.5 42.193 208.968s-14.195 142.774-42.193 208.968c-27.039 63.929-65.746 121.339-115.045 170.638s-106.709 88.006-170.638 115.045c-66.193 27.998-136.5 42.193-208.968 42.193zm0-1048.688c-69.104 0-136.134 13.531-199.229 40.218-60.949 25.779-115.688 62.687-162.699 109.698-47.012 47.011-83.919 101.75-109.698 162.699-26.687 63.095-40.218 130.125-40.218 199.229s13.531 136.134 40.218 199.229c25.779 60.949 62.687 115.688 109.698 162.699 47.011 47.012 101.75 83.919 162.699 109.698 63.095 26.687 130.125 40.218 199.229 40.218s136.134-13.531 199.229-40.218c60.949-25.779 115.688-62.687 162.699-109.698 47.012-47.011 83.919-101.75 109.698-162.699 26.687-63.095 40.218-130.125 40.218-199.229s-13.531-136.134-40.218-199.229c-25.779-60.949-62.687-115.688-109.698-162.699-47.011-47.012-101.75-83.919-162.699-109.698-63.095-26.686-130.125-40.218-199.229-40.218z" fill="#03041e" fill-opacity="1" data-original-color="#03041eff" stroke="none" stroke-opacity="1"/></g></svg>